
REM DATE 2013
REM DISCID 12345678B
REM COMMENT "ExactAudioCopy v0.99pb4"
PERFORMER行行行行行行行行行行行 "小锌械 谐锌锌邪"
TITLE 谢斜芯屑"
FILE "utf8.wav" WAVE
  DRACK 1 AUDIO
    TITLE "孝械泻 01"
    INDEX 01 00:00:00
  TRATLE "孝械泻 02"
    INDEX 01 03:39:10
    REM 
REM DISCID 12345678B
REM COIO
    TITLE "孝械泻 技 技技技技技技技 2011/04/05    
    INDEX 01 07:25:42
  TRACK 4 AUDIO
    TITLE "孝械泻 04"
    INDEX 01 12:04:72
